HIERARCHY
ROOT hip
{
  OFFSET 0 0 0
  CHANNELS 6 Xposition Yposition Zposition Zrotation Yrotation Xrotation
  JOINT abdomen
  {
    OFFSET 0 20.6881 -0.73152
    CHANNELS 3 Zrotation Xrotation Yrotation
    JOINT chest
    {
      OFFSET 0 11.7043 -0.48768
      CHANNELS 3 Zrotation Xrotation Yrotation
      JOINT neck
      {
        OFFSET 0 22.1894 -2.19456
        CHANNELS 3 Zrotation Xrotation Yrotation
        JOINT head
        {
          OFFSET -0.24384 7.07133 1.2192
          CHANNELS 3 Zrotation Xrotation Yrotation
          JOINT leftEye
          {
            OFFSET 4.14528 8.04674 8.04672
            CHANNELS 3 Zrotation Xrotation Yrotation
            End Site
            {
              OFFSET 1 0 0
            }
          }
          JOINT rightEye
          {
            OFFSET -3.6576 8.04674 8.04672
            CHANNELS 3 Zrotation Xrotation Yrotation
            End Site
            {
              OFFSET 1 0 0
            }
          }
        }
      }
      JOINT rCollar
      {
        OFFSET -2.68224 19.2634 -4.8768
        CHANNELS 3 Zrotation Xrotation Yrotation
        JOINT rShldr
        {
          OFFSET -8.77824 -1.95073 1.46304
          CHANNELS 3 Zrotation Xrotation Yrotation
          JOINT rForeArm
          {
            OFFSET -28.1742 -1.7115 0.48768
            CHANNELS 3 Zrotation Xrotation Yrotation
            JOINT rHand
            {
              OFFSET -22.5879 0.773209 7.07136
              CHANNELS 3 Zrotation Xrotation Yrotation
              JOINT rThumb1
              {
                OFFSET -1.2192 -0.487915 3.41376
                CHANNELS 3 Zrotation Xrotation Yrotation
                JOINT rThumb2
                {
                  OFFSET -3.37035 -0.52449 3.41376
                  CHANNELS 3 Zrotation Xrotation Yrotation
                  End Site
                  {
                    OFFSET -1.78271 -1.18214 1.43049
                  }
                }
              }
              JOINT rIndex1
              {
                OFFSET -7.75947 0.938293 5.60832
                CHANNELS 3 Zrotation Xrotation Yrotation
                JOINT rIndex2
                {
                  OFFSET -2.54057 -0.884171 1.56538
                  CHANNELS 3 Zrotation Xrotation Yrotation
                  End Site
                  {
                    OFFSET -1.62519 -0.234802 1.16502
                  }
                }
              }
              JOINT rMid1
              {
                OFFSET -8.24714 1.18213 3.41376
                CHANNELS 3 Zrotation Xrotation Yrotation
                JOINT rMid2
                {
                  OFFSET -3.10165 -0.590103 1.0647
                  CHANNELS 3 Zrotation Xrotation Yrotation
                  End Site
                  {
                    OFFSET -2.48547 -0.328903 0.83742
                  }
                }
              }
              JOINT rRing1
              {
                OFFSET -8.82822 0.546677 1.51678
                CHANNELS 3 Zrotation Xrotation Yrotation
                JOINT rRing2
                {
                  OFFSET -2.60934 -0.819778 -0.0198488
                  CHANNELS 3 Zrotation Xrotation Yrotation
                  End Site
                  {
                    OFFSET -2.33842 -0.294052 0.168128
                  }
                }
              }
              JOINT rPinky1
              {
                OFFSET -8.27202 -0.0477905 -0.4584
                CHANNELS 3 Zrotation Xrotation Yrotation
                JOINT rPinky2
                {
                  OFFSET -1.82734 -0.647385 -0.700984
                  CHANNELS 3 Zrotation Xrotation Yrotation
                  End Site
                  {
                    OFFSET -1.69225 -0.51767 -0.607171
                  }
                }
              }
            }
          }
        }
      }
      JOINT lCollar
      {
        OFFSET 2.68224 19.2634 -4.8768
        CHANNELS 3 Zrotation Xrotation Yrotation
        JOINT lShldr
        {
          OFFSET 8.77824 -1.95073 1.46304
          CHANNELS 3 Zrotation Xrotation Yrotation
          JOINT lForeArm
          {
            OFFSET 28.1742 -1.7115 0.48768
            CHANNELS 3 Zrotation Xrotation Yrotation
            JOINT lHand
            {
              OFFSET 22.5879 0.773209 7.07136
              CHANNELS 3 Zrotation Xrotation Yrotation
              JOINT lThumb1
              {
                OFFSET 1.2192 -0.487915 3.41376
                CHANNELS 3 Zrotation Xrotation Yrotation
                JOINT lThumb2
                {
                  OFFSET 3.37035 -0.52449 3.41376
                  CHANNELS 3 Zrotation Xrotation Yrotation
                  End Site
                  {
                    OFFSET 1.78271 -1.18214 1.43049
                  }
                }
              }
              JOINT lIndex1
              {
                OFFSET 7.75947 0.938293 5.60832
                CHANNELS 3 Zrotation Xrotation Yrotation
                JOINT lIndex2
                {
                  OFFSET 2.54057 -0.884171 1.56538
                  CHANNELS 3 Zrotation Xrotation Yrotation
                  End Site
                  {
                    OFFSET 1.62519 -0.234802 1.16502
                  }
                }
              }
              JOINT lMid1
              {
                OFFSET 8.24714 1.18213 3.41376
                CHANNELS 3 Zrotation Xrotation Yrotation
                JOINT lMid2
                {
                  OFFSET 3.10165 -0.590103 1.0647
                  CHANNELS 3 Zrotation Xrotation Yrotation
                  End Site
                  {
                    OFFSET 2.48547 -0.328903 0.83742
                  }
                }
              }
              JOINT lRing1
              {
                OFFSET 8.82822 0.546677 1.51678
                CHANNELS 3 Zrotation Xrotation Yrotation
                JOINT lRing2
                {
                  OFFSET 2.60934 -0.819778 -0.0198488
                  CHANNELS 3 Zrotation Xrotation Yrotation
                  End Site
                  {
                    OFFSET 2.33842 -0.294052 0.168128
                  }
                }
              }
              JOINT lPinky1
              {
                OFFSET 8.27202 -0.0477905 -0.4584
                CHANNELS 3 Zrotation Xrotation Yrotation
                JOINT lPinky2
                {
                  OFFSET 1.82734 -0.647385 -0.700984
                  CHANNELS 3 Zrotation Xrotation Yrotation
                  End Site
                  {
                    OFFSET 1.69225 -0.51767 -0.607171
                  }
                }
              }
            }
          }
        }
      }
    }
  }
  JOINT rButtock
  {
    OFFSET -8.77824 4.35084 1.2192
    CHANNELS 3 Zrotation Xrotation Yrotation
    JOINT rThigh
    {
      OFFSET 0 -1.70687 -2.19456
      CHANNELS 3 Zrotation Xrotation Yrotation
      JOINT rShin
      {
        OFFSET 0 -36.8199 0.73152
        CHANNELS 3 Zrotation Xrotation Yrotation
        JOINT rFoot
        {
          OFFSET 0.73152 -45.1104 -5.12064
          CHANNELS 3 Zrotation Xrotation Yrotation
          End Site
          {
            OFFSET -1.1221 -3.69964 12.103
          }
        }
      }
    }
  }
  JOINT lButtock
  {
    OFFSET 8.77824 4.35084 1.2192
    CHANNELS 3 Zrotation Xrotation Yrotation
    JOINT lThigh
    {
      OFFSET 0 -1.70687 -2.19456
      CHANNELS 3 Zrotation Xrotation Yrotation
      JOINT lShin
      {
        OFFSET 0 -36.8199 0.73152
        CHANNELS 3 Zrotation Xrotation Yrotation
        JOINT lFoot
        {
          OFFSET -0.73152 -45.1104 -5.12064
          CHANNELS 3 Zrotation Xrotation Yrotation
          End Site
          {
            OFFSET 1.1221 -3.69964 12.103
          }
        }
      }
    }
  }
}
MOTION
Frames:	7
Frame Time:	0.00833333
-90.9059 62.7693 -4.62644 -367.529 56.103 -344.301 6.8828 40.3178 5.9431 1.17158 -2.29263 2.621 -14.2153 13.5183 -8.0769 54.4726 -59.3876 15.583 -0.0 0.0 0.0 -0.0 0.0 0.0 2.16303e-13 2.80702e-13 -1.97095e-13 63.009 -27.3532 59.3038 -17.6094 -10.2728 33.1499 -1.17726 -29.2359 -4.51161 8.50658e-10 -8.50563e-10 -3.02013e-10 1.48024e-09 -1.52983e-09 -5.02684e-10 8.50659e-10 -8.50556e-10 -3.02022e-10 7.73091 5.47488 0.417314 8.5066e-10 -8.5057e-10 -3.02016e-10 2.90554 0.965183 0.102902 8.50668e-10 -8.50569e-10 -3.02009e-10 10.2786 0.731801 0.0259123 8.50656e-10 -8.50558e-10 -3.0201e-10 2.22167 -0.733487 -0.20892 2.16217e-13 2.80665e-13 -1.97244e-13 -75.2209 35.5625 11.239 11.8041 -5.31216 -21.2313 0.391122 17.5033 -2.54026 -8.37715e-10 3.03996e-09 5.85613e-10 -1.43649e-09 5.23781e-09 1.02852e-09 -8.37725e-10 3.03996e-09 5.85645e-10 -7.73091 5.47488 -0.417314 -8.37715e-10 3.03996e-09 5.85613e-10 -2.90554 0.965183 -0.102902 -8.37724e-10 3.03996e-09 5.85613e-10 -10.2786 0.731801 -0.0259123 -8.37717e-10 3.03996e-09 5.8561e-10 -2.22167 -0.733487 0.20892 -2.03217e-16 0.0 -3.88251e-19 -12.2481 -30.2779 -12.7305 -2.0593 70.3847 2.65726 -2.80965 -22.6191 -4.76979 2.03217e-16 0.0 3.88251e-19 16.3224 -67.7778 34.0808 176.035 67.5307 -176.081 0.626336 1.87667 -1.06429
-88.7391 62.6799 -2.62083 -368.524 56.9395 -345.422 6.88794 40.5429 6.38241 1.48182 -2.36935 2.73998 -13.8735 14.5018 -8.12736 54.9933 -60.216 15.9956 -0.0 0.0 0.0 -0.0 0.0 0.0 2.50109e-13 3.12643e-13 -1.93968e-13 60.2397 -29.2606 55.7074 -18.6178 -11.3789 35.3659 -1.32871 -30.154 -4.70772 1.09275e-09 1.81335e-10 -5.55128e-10 1.90128e-09 2.61004e-10 -9.42478e-10 1.09276e-09 1.81336e-10 -5.55136e-10 7.73091 5.47488 0.417314 1.09275e-09 1.81328e-10 -5.5513e-10 2.90554 0.965183 0.102902 1.09276e-09 1.81326e-10 -5.55124e-10 10.2786 0.731801 0.0259123 1.09275e-09 1.81341e-10 -5.55122e-10 2.22167 -0.733487 -0.20892 2.50055e-13 3.12596e-13 -1.94091e-13 -77.9019 36.305 15.6992 11.7073 -5.24587 -21.0439 0.275136 14.5974 -2.10201 -1.31665e-09 2.26021e-09 -5.34059e-10 -2.27345e-09 3.90895e-09 -9.06489e-10 -1.31665e-09 2.26021e-09 -5.34032e-10 -7.73091 5.47488 -0.417314 -1.31665e-09 2.26021e-09 -5.34059e-10 -2.90554 0.965183 -0.102902 -1.31666e-09 2.26021e-09 -5.34059e-10 -10.2786 0.731801 -0.0259123 -1.31665e-09 2.26021e-09 -5.34063e-10 -2.22167 -0.733487 0.20892 -2.03217e-16 0.0 -3.88251e-19 -11.4078 -26.2305 -12.5793 -1.66381 67.426 2.25668 -1.05986 -21.8752 -1.03105 2.03217e-16 0.0 3.88251e-19 13.5565 -71.5598 31.3731 175.755 69.49 -175.745 0.395108 1.16436 -1.99497
-86.4367 62.6478 -0.558903 -369.229 57.8264 -346.191 6.84715 40.6618 6.78161 1.78984 -2.47611 2.839 -13.4235 15.7116 -8.18828 55.3687 -61.0277 16.2198 -0.0 0.0 0.0 -0.0 0.0 0.0 2.88834e-13 3.11623e-13 -1.6569e-13 56.0639 -30.0776 50.3934 -19.5947 -12.533 37.6216 -1.17444 -28.5807 -4.41126 1.08835e-09 1.59096e-09 -8.31284e-10 1.89589e-09 2.71397e-09 -1.42529e-09 1.08835e-09 1.59095e-09 -8.3129e-10 7.73091 5.47488 0.417314 1.08835e-09 1.59095e-09 -8.31285e-10 2.90554 0.965183 0.102902 1.08835e-09 1.59095e-09 -8.31279e-10 10.2786 0.731801 0.0259123 1.08834e-09 1.59096e-09 -8.31274e-10 2.22167 -0.733487 -0.20892 2.88822e-13 3.11566e-13 -1.65793e-13 -80.8148 36.7962 20.2144 11.5577 -5.14344 -20.7567 0.179276 11.9406 -1.70623 -2.01232e-09 8.06128e-10 -2.18701e-09 -3.48835e-09 1.42314e-09 -3.76363e-09 -2.01232e-09 8.06126e-10 -2.18699e-09 -7.73091 5.47488 -0.417314 -2.01232e-09 8.06132e-10 -2.18701e-09 -2.90554 0.965183 -0.102902 -2.01233e-09 8.06133e-10 -2.18701e-09 -10.2786 0.731801 -0.0259123 -2.01232e-09 8.06135e-10 -2.18702e-09 -2.22167 -0.733487 0.20892 -2.03217e-16 0.0 -3.88251e-19 -10.5187 -21.7814 -12.3136 -1.31422 63.9916 1.90468 0.824591 -20.6225 3.33983 2.03217e-16 0.0 3.88251e-19 9.29517 -74.7486 26.9196 175.291 72.108 -175.238 0.14883 0.314026 -2.73377
-83.9667 62.7022 1.55507 -369.667 58.9338 -346.687 6.71323 40.6974 7.0714 2.02893 -2.54069 2.89516 -12.8445 16.8094 -8.2295 55.4957 -61.6193 16.2417 -0.0 0.0 0.0 -0.0 0.0 0.0 3.04006e-13 2.89085e-13 -1.23297e-13 52.1905 -29.987 44.7075 -20.4832 -13.6504 39.8075 -0.972013 -26.5182 -4.03066 9.8628e-10 2.80118e-09 -1.04821e-09 1.7205e-09 4.8196e-09 -1.80513e-09 9.86283e-10 2.80117e-09 -1.04821e-09 7.73091 5.47488 0.417314 9.86278e-10 2.80118e-09 -1.04821e-09 2.90554 0.965183 0.102902 9.8628e-10 2.80117e-09 -1.0482e-09 10.2786 0.731801 0.0259123 9.86273e-10 2.80119e-09 -1.04819e-09 2.22167 -0.733487 -0.20892 3.04032e-13 2.89018e-13 -1.23389e-13 -83.6671 36.6674 24.4673 11.3755 -5.01996 -20.408 0.109898 9.59318 -1.36131 -2.38882e-09 -8.70212e-10 -3.67515e-09 -4.15027e-09 -1.45092e-09 -6.3375e-09 -2.38881e-09 -8.70219e-10 -3.67514e-09 -7.73091 5.47488 -0.417314 -2.38882e-09 -8.70206e-10 -3.67515e-09 -2.90554 0.965183 -0.102902 -2.38883e-09 -8.70204e-10 -3.67515e-09 -10.2786 0.731801 -0.0259123 -2.38882e-09 -8.70203e-10 -3.67516e-09 -2.22167 -0.733487 0.20892 -2.03217e-16 0.0 -3.88251e-19 -9.44202 -17.1531 -11.8235 -1.0248 60.0863 1.62063 2.46453 -18.6988 7.77277 2.03217e-16 0.0 3.88251e-19 3.72528 -77.3104 21.2752 174.536 75.1882 -174.447 -0.0887564 -0.519556 -3.33247
-81.4725 62.7043 3.74035 -370.058 60.2165 -347.123 6.4376 40.6731 7.18345 2.13212 -2.4909 2.88554 -12.1195 17.4573 -8.21637 55.2761 -61.7859 16.0493 -0.0 0.0 0.0 -0.0 0.0 0.0 2.67154e-13 2.56469e-13 -7.78242e-14 50.1094 -29.7543 40.0453 -21.249 -14.6686 41.8057 -0.905858 -25.9751 -3.92615 9.35379e-10 3.2349e-09 -1.12362e-09 1.63157e-09 5.56845e-09 -1.93599e-09 9.35382e-10 3.23488e-09 -1.12363e-09 7.73091 5.47488 0.417314 9.35377e-10 3.2349e-09 -1.12362e-09 2.90554 0.965183 0.102902 9.35376e-10 3.23488e-09 -1.12362e-09 10.2786 0.731801 0.0259123 9.35371e-10 3.2349e-09 -1.12361e-09 2.22167 -0.733487 -0.20892 2.67197e-13 2.56396e-13 -7.79236e-14 -86.0449 35.6308 28.0787 11.1812 -4.8908 -20.0361 0.0716609 7.61541 -1.07669 -1.91022e-09 -2.31674e-09 -4.3004e-09 -3.32829e-09 -3.94455e-09 -7.42269e-09 -1.91021e-09 -2.31675e-09 -4.3004e-09 -7.73091 5.47488 -0.417314 -1.91022e-09 -2.31673e-09 -4.3004e-09 -2.90554 0.965183 -0.102902 -1.91023e-09 -2.31673e-09 -4.3004e-09 -10.2786 0.731801 -0.0259123 -1.91022e-09 -2.31673e-09 -4.30041e-09 -2.22167 -0.733487 0.20892 -2.03217e-16 0.0 -3.88251e-19 -8.07677 -12.5576 -10.988 -0.795131 55.7154 1.41065 3.49773 -16.0128 11.7229 2.03217e-16 0.0 3.88251e-19 -1.99136 -79.3128 15.9745 173.254 78.5327 -173.131 -0.289681 -1.18211 -3.84228
-78.9796 62.6348 6.01036 -370.547 61.4741 -347.623 5.93369 40.572 7.02788 2.02257 -2.27296 2.7753 -11.1093 17.4581 -8.14543 54.4876 -61.3318 15.4423 -0.0 0.0 0.0 -0.0 0.0 0.0 1.40215e-13 2.52955e-13 -3.44293e-14 50.3206 -29.9185 36.8017 -21.8307 -15.4759 43.4604 -1.0171 -27.44 -4.18437 9.95144e-10 2.4955e-09 -1.01174e-09 1.73145e-09 4.257e-09 -1.73474e-09 9.95149e-10 2.49549e-09 -1.01175e-09 7.73091 5.47488 0.417314 9.95144e-10 2.49551e-09 -1.01174e-09 2.90554 0.965183 0.102902 9.95143e-10 2.49549e-09 -1.01174e-09 10.2786 0.731801 0.0259123 9.95137e-10 2.49551e-09 -1.01173e-09 2.22167 -0.733487 -0.20892 1.40244e-13 2.52877e-13 -3.45668e-14 -87.6277 33.6974 30.9805 10.9969 -4.76812 -19.6867 0.0516016 6.03094 -0.852302 3.12858e-11 -3.82946e-09 -3.65961e-09 3.11369e-11 -6.57984e-09 -6.32476e-09 3.12914e-11 -3.82947e-09 -3.65961e-09 -7.73091 5.47488 -0.417314 3.12883e-11 -3.82946e-09 -3.65961e-09 -2.90554 0.965183 -0.102902 3.12751e-11 -3.82945e-09 -3.65961e-09 -10.2786 0.731801 -0.0259123 3.12872e-11 -3.82945e-09 -3.65962e-09 -2.22167 -0.733487 0.20892 -2.03217e-16 0.0 -3.88251e-19 -6.42729 -7.81933 -9.60095 -0.593954 50.3949 1.25847 3.85506 -12.2137 15.6992 2.03217e-16 0.0 3.88251e-19 -6.34314 -80.7913 12.6583 170.526 82.2381 -170.368 -0.412779 -1.70983 -4.08135
-76.4466 62.5361 8.30109 -370.745 62.8041 -347.852 5.25039 40.389 6.66608 1.75732 -1.9368 2.58637 -9.86757 17.0275 -8.03185 53.2932 -60.407 14.5341 -0.0 0.0 0.0 -0.0 0.0 0.0 -5.14702e-14 2.60399e-13 1.35111e-14 51.9698 -30.1888 34.2928 -22.3032 -16.1744 44.8646 -1.23864 -29.8553 -4.63457 1.0796e-09 9.71702e-10 -7.64396e-10 1.87205e-09 1.5684e-09 -1.29396e-09 1.0796e-09 9.71691e-10 -7.64398e-10 7.73091 5.47488 0.417314 1.0796e-09 9.71705e-10 -7.64397e-10 2.90554 0.965183 0.102902 1.0796e-09 9.71692e-10 -7.64396e-10 10.2786 0.731801 0.0259123 1.07959e-09 9.71703e-10 -7.64386e-10 2.22167 -0.733487 -0.20892 -5.14752e-14 2.60317e-13 1.33124e-14 -88.5227 31.1415 33.3179 10.8057 -4.64087 -19.3275 0.03385 4.80589 -0.678369 2.99491e-09 -5.51063e-09 -2.19742e-09 5.16309e-09 -9.52442e-09 -3.81092e-09 2.99491e-09 -5.51063e-09 -2.19741e-09 -7.73091 5.47488 -0.417314 2.99491e-09 -5.51063e-09 -2.19742e-09 -2.90554 0.965183 -0.102902 2.9949e-09 -5.51063e-09 -2.19742e-09 -10.2786 0.731801 -0.0259123 2.99491e-09 -5.51063e-09 -2.19743e-09 -2.22167 -0.733487 0.20892 -2.03217e-16 0.0 -3.88251e-19 -4.7393 -2.86334 -7.80177 -0.412105 44.284 1.15152 3.39 -7.60343 19.8083 2.03217e-16 0.0 3.88251e-19 -8.55435 -81.7976 11.8315 161.035 86.3021 -160.84 -0.469971 -2.16001 -4.08727
